<svg viewBox="0 0 32 32" xml:space="preserve" xmlns="http://www.w3.org/2000/svg" enable-background="new 0 0 32 32"><path d="M16 32C7.178 32 0 24.822 0 16S7.178 0 16 0s16 7.178 16 16-7.178 16-16 16zm0-30C8.28 2 2 8.28 2 16s6.28 14 14 14 14-6.28 14-14S23.72 2 16 2z" fill="#738cd4" class="fill-fd5c3f"></path><path d="M24 14a1 1 0 0 1-1-1c0-1.103-.897-2-2-2s-2 .897-2 2a1 1 0 1 1-2 0c0-2.206 1.794-4 4-4s4 1.794 4 4a1 1 0 0 1-1 1zM14 14a1 1 0 0 1-1-1c0-1.103-.897-2-2-2s-2 .897-2 2a1 1 0 1 1-2 0c0-2.206 1.794-4 4-4s4 1.794 4 4a1 1 0 0 1-1 1zM16 28c-4.971 0-9.356-2.997-11.17-7.636A.999.999 0 0 1 5.761 19h20.478c.331 0 .64.163.826.437.187.272.226.62.105.928C25.356 25.003 20.971 28 16 28zm-8.654-7c1.767 3.079 5.022 5 8.654 5s6.888-1.921 8.654-5H7.346z" fill="#738cd4" class="fill-fd5c3f"></path></svg>