<svg viewBox="0 0 32 32" xml:space="preserve" xmlns="http://www.w3.org/2000/svg"><path d="M16 26.02c-9.119 0-14.698-9.35-14.932-9.747l-.147-.252.146-.252C1.298 15.371 6.817 6.02 16 6.02s14.702 9.352 14.933 9.749l.146.252-.147.252c-.234.397-5.813 9.747-14.932 9.747zM2.088 16.019C3.042 17.501 8.263 25.02 16 25.02c7.748 0 12.959-7.518 13.912-9.001C28.966 14.535 23.791 7.02 16 7.02S3.034 14.534 2.088 16.019z" fill="#62bfbf" class="fill-263238"></path><path d="M16 20.52a4.505 4.505 0 0 1-4.5-4.5c0-.77.199-1.529.574-2.199a.5.5 0 1 1 .872.489A3.504 3.504 0 0 0 16 19.52c1.93 0 3.5-1.57 3.5-3.5a3.504 3.504 0 0 0-5.231-3.043.5.5 0 0 1-.495-.87A4.5 4.5 0 1 1 16 20.52z" fill="#62bfbf" class="fill-263238"></path><path d="M16 24.02c-4.411 0-8-3.589-8-8 0-1.735.547-3.388 1.583-4.776a.501.501 0 0 1 .802.597A6.94 6.94 0 0 0 9 16.02c0 3.859 3.14 7 7 7s7-3.141 7-7-3.14-7-7-7a6.943 6.943 0 0 0-4.2 1.399.5.5 0 1 1-.6-.799 7.926 7.926 0 0 1 4.8-1.6c4.411 0 8 3.589 8 8s-3.589 8-8 8z" fill="#62bfbf" class="fill-263238"></path><g fill="#62bfbf" class="fill-263238"><path d="M19.43 26.619a.5.5 0 0 0-.489.605l.626 2.935a.5.5 0 1 0 .977-.209l-.626-2.935a.5.5 0 0 0-.488-.396zM22.709 25.554a.5.5 0 0 0-.456.704l1.223 2.74a.5.5 0 0 0 .913-.408l-1.223-2.74a.5.5 0 0 0-.457-.296zM25.697 23.829a.498.498 0 0 0-.403.794l1.766 2.427a.5.5 0 1 0 .808-.588l-1.766-2.427a.498.498 0 0 0-.405-.206zM28.261 21.521a.5.5 0 0 0-.335.872l2.231 2.007a.5.5 0 0 0 .669-.744l-2.231-2.007a.496.496 0 0 0-.334-.128zM3.738 21.521a.49.49 0 0 0-.334.129l-2.229 2.009a.499.499 0 1 0 .669.742l2.229-2.009a.499.499 0 0 0-.335-.871zM6.302 23.829a.498.498 0 0 0-.405.206l-1.763 2.428a.5.5 0 0 0 .81.588l1.763-2.428a.5.5 0 0 0-.405-.794zM9.289 25.554a.5.5 0 0 0-.458.297l-1.22 2.741a.5.5 0 1 0 .914.406l1.22-2.741a.5.5 0 0 0-.456-.703zM12.569 26.62a.501.501 0 0 0-.489.396l-.624 2.935a.5.5 0 0 0 .385.593.504.504 0 0 0 .593-.386l.624-2.935a.5.5 0 0 0-.489-.603zM16 26.98a.5.5 0 0 0-.5.5v3a.5.5 0 0 0 1 0v-3a.5.5 0 0 0-.5-.5z"></path></g><g fill="#62bfbf" class="fill-263238"><path d="M19.43 5.381a.5.5 0 0 1-.489-.605l.626-2.935a.5.5 0 1 1 .977.209l-.626 2.935a.5.5 0 0 1-.488.396zM22.709 6.446a.5.5 0 0 1-.456-.704l1.223-2.74a.5.5 0 0 1 .913.408l-1.223 2.74a.5.5 0 0 1-.457.296zM25.697 8.171a.498.498 0 0 1-.404-.794l1.766-2.427a.5.5 0 1 1 .808.588l-1.766 2.427a.495.495 0 0 1-.404.206zM28.261 10.479a.5.5 0 0 1-.335-.872L30.158 7.6a.5.5 0 0 1 .669.744l-2.231 2.007a.5.5 0 0 1-.335.128zM3.738 10.479a.49.49 0 0 1-.334-.129l-2.23-2.008a.499.499 0 1 1 .669-.742l2.229 2.009a.499.499 0 0 1-.334.87zM6.302 8.171a.498.498 0 0 1-.405-.206L4.133 5.537a.5.5 0 0 1 .81-.588l1.763 2.428a.5.5 0 0 1-.404.794zM9.289 6.446a.5.5 0 0 1-.458-.297l-1.22-2.741a.501.501 0 0 1 .915-.406l1.22 2.741a.5.5 0 0 1-.457.703zM12.569 5.38a.501.501 0 0 1-.489-.396l-.624-2.935a.5.5 0 0 1 .385-.593.504.504 0 0 1 .593.386l.624 2.935a.5.5 0 0 1-.489.603zM16 5.02a.5.5 0 0 1-.5-.5v-3a.5.5 0 0 1 1 0v3a.5.5 0 0 1-.5.5z"></path></g></svg>