<svg viewBox="0 0 22.434 22.382" xmlns="http://www.w3.org/2000/svg"><g data-name="Layer 2"><path d="M20.106 15.036c.227 3.121.588 4.569-3.531 4.59a.724.724 0 0 0-.818.768v1.648a.34.34 0 0 1-.68 0v-1.648a1.381 1.381 0 0 1 1.5-1.448c1.615 0 2.765-.342 2.862-.851a13.2 13.2 0 0 0-.036-3.232.341.341 0 0 1 .215-.362 15.2 15.2 0 0 0 1.832-.871c.258-.149.283-.288.291-.334a.977.977 0 0 0-.28-.668 8.774 8.774 0 0 1-2-3.4C19.333-.5 5.956-2.658 2.815 6.551a.34.34 0 1 1-.647-.208C5.519-3.541 19.9-1.307 20.133 9.121a8.693 8.693 0 0 0 1.845 3.068c1.382 1.677-.711 2.327-1.872 2.847Zm-7.749-4.559a.341.341 0 0 1 .1.241v11.324a.34.34 0 0 1-.34.34H.34a.34.34 0 0 1-.34-.34v-2.491c.005-.522.805-.294 1.359-.34V13.1c-.553-.051-1.354.179-1.359-.343v-5.21a.34.34 0 0 1 .34-.34h8.606a.337.337 0 0 1 .24.1Zm-.58.382L9.286 8.367v1.9a.34.34 0 0 1-.679 0v-2.38H7.134v2.378a.34.34 0 1 1-.679 0V7.887H4.983v2.378a.34.34 0 0 1-.68 0V7.887H2.831v2.378a.34.34 0 1 1-.679 0V7.887H.68v4.529c.553.048 1.352-.183 1.358.341v6.794c-.006.523-.8.293-1.358.34V21.7h11.1ZM8.72 12.416a1.247 1.247 0 0 1 1.245 1.246v4.983a1.247 1.247 0 0 1-1.245 1.246H5.1a1.247 1.247 0 0 1-1.25-1.246v-4.983a1.248 1.248 0 0 1 1.25-1.246Zm0 .68H5.1a.567.567 0 0 0-.566.566v4.983a.567.567 0 0 0 .566.566h3.62a.567.567 0 0 0 .566-.566v-4.983a.567.567 0 0 0-.566-.562Z" data-name="Layer 1" fill="#cf8d7d" class="fill-000000"></path></g></svg>